<svg xmlns="http://www.w3.org/2000/svg" width="160" height="160" viewBox="0 0 160 160" role="img" aria-labelledby="title desc">
  <title id="title">Embodied4Arts logo</title>
  <desc id="desc">A robot arm holding a brush inside a rounded square, with expressive painted strokes.</desc>
  <defs>
    <linearGradient id="studio" x1="24" y1="18" x2="136" y2="142" gradientUnits="userSpaceOnUse">
      <stop offset="0" stop-color="#fffdf5"/>
      <stop offset="1" stop-color="#eef6f0"/>
    </linearGradient>
    <linearGradient id="stroke" x1="40" y1="118" x2="126" y2="62" gradientUnits="userSpaceOnUse">
      <stop offset="0" stop-color="#b45d42"/>
      <stop offset=".5" stop-color="#b8872d"/>
      <stop offset="1" stop-color="#0d766e"/>
    </linearGradient>
  </defs>
  <rect x="12" y="12" width="136" height="136" rx="28" fill="url(#studio)" stroke="#162019" stroke-width="8"/>
  <path d="M39 112c16 8 28 2 42-15 17-20 31-30 47-19" fill="none" stroke="url(#stroke)" stroke-width="13" stroke-linecap="round"/>
  <path d="M37 121c17 7 34 5 53-10 15-12 25-15 35-9" fill="none" stroke="#0d766e" stroke-width="5" stroke-linecap="round" opacity=".75"/>
  <circle cx="55" cy="68" r="15" fill="#162019"/>
  <circle cx="55" cy="68" r="6" fill="#fbfbf8"/>
  <path d="M65 61l31-19" fill="none" stroke="#162019" stroke-width="13" stroke-linecap="round"/>
  <circle cx="99" cy="40" r="13" fill="#162019"/>
  <circle cx="99" cy="40" r="5" fill="#fbfbf8"/>
  <path d="M106 49l18 30" fill="none" stroke="#162019" stroke-width="12" stroke-linecap="round"/>
  <path d="M124 79l-12 16" fill="none" stroke="#162019" stroke-width="10" stroke-linecap="round"/>
  <path d="M111 96l-8 22 22-8 5-14-8-6z" fill="#b45d42" stroke="#162019" stroke-width="5" stroke-linejoin="round"/>
  <path d="M46 86h24" stroke="#162019" stroke-width="9" stroke-linecap="round"/>
  <path d="M39 93l15-32" stroke="#162019" stroke-width="9" stroke-linecap="round"/>
</svg>
